<svg xmlns="http://www.w3.org/2000/svg" xmlns:xlink="http://www.w3.org/1999/xlink" xml:lang="en" height="185.20000000000005pt" width="581.7679999999998pt" viewBox="-4.6 -180.60000000000002 581.7679999999998 185.20000000000005"><path d="M 0.0,-0.0 L 93.6,-0 L 93.6,-144 L 0,-144 L 0,-0" style="stroke:#e6e6e6;fill:none;stroke-width:2.2;stroke-dasharray:-;stroke-linecap:round;stroke-linejoin:round;" /><path d="M 93.60000000000001,-126.0 L 111.6,-126" style="stroke:#e6e6e6;fill:none;stroke-width:2.2;stroke-dasharray:-;stroke-linecap:round;stroke-linejoin:round;" /><path d="M 93.60000000000001,-90.0 L 111.6,-90" style="stroke:#e6e6e6;fill:none;stroke-width:2.2;stroke-dasharray:-;stroke-linecap:round;stroke-linejoin:round;" /><path d="M 93.60000000000001,-54.0 L 111.6,-54" style="stroke:#e6e6e6;fill:none;stroke-width:2.2;stroke-dasharray:-;stroke-linecap:round;stroke-linejoin:round;" /><path d="M 93.60000000000001,-18.0 L 111.6,-18" style="stroke:#e6e6e6;fill:none;stroke-width:2.2;stroke-dasharray:-;stroke-linecap:round;stroke-linejoin:round;" /><path d="M 309.59999999999997,-0.0 L 403.2,-0 L 403.2,-144 L 309.6,-144 L 309.6,-0" style="stroke:#e6e6e6;fill:none;stroke-width:2.2;stroke-dasharray:-;stroke-linecap:round;stroke-linejoin:round;" /><path d="M 309.59999999999997,-126.0 L 291.6,-126" style="stroke:#e6e6e6;fill:none;stroke-width:2.2;stroke-dasharray:-;stroke-linecap:round;stroke-linejoin:round;" /><path d="M 309.59999999999997,-90.0 L 291.6,-90" style="stroke:#e6e6e6;fill:none;stroke-width:2.2;stroke-dasharray:-;stroke-linecap:round;stroke-linejoin:round;" /><path d="M 309.59999999999997,-54.0 L 291.6,-54" style="stroke:#e6e6e6;fill:none;stroke-width:2.2;stroke-dasharray:-;stroke-linecap:round;stroke-linejoin:round;" /><path d="M 309.59999999999997,-18.0 L 291.6,-18" style="stroke:#e6e6e6;fill:none;stroke-width:2.2;stroke-dasharray:-;stroke-linecap:round;stroke-linejoin:round;" /><path d="M 403.2,-90.0 L 421.2,-90" style="stroke:#e6e6e6;fill:none;stroke-width:2.2;stroke-dasharray:-;stroke-linecap:round;stroke-linejoin:round;" /><path d="M 111.60000000000001,-126.0 L 201.6,-126 L 291.6,-126" style="stroke:#e6e6e6;fill:none;stroke-width:2.2;stroke-dasharray:-;stroke-linecap:round;stroke-linejoin:round;" /><path d="M 111.60000000000001,-90.0 L 201.6,-90 L 291.6,-90" style="stroke:#e6e6e6;fill:none;stroke-width:2.2;stroke-dasharray:-;stroke-linecap:round;stroke-linejoin:round;" /><path d="M 111.60000000000001,-54.0 L 201.6,-54 L 291.6,-54" style="stroke:#e6e6e6;fill:none;stroke-width:2.2;stroke-dasharray:-;stroke-linecap:round;stroke-linejoin:round;" /><path d="M 111.60000000000001,-18.0 L 201.6,-18 L 291.6,-18" style="stroke:#e6e6e6;fill:none;stroke-width:2.2;stroke-dasharray:-;stroke-linecap:round;stroke-linejoin:round;" /><path d="M 421.2,-90.0 L 442.8,-90 L 464.4,-90" style="stroke:#e6e6e6;fill:none;stroke-width:2.2;stroke-dasharray:-;stroke-linecap:round;stroke-linejoin:round;" /><path d="M 521.9999999999999,-144.0 L 522,-108 L 513,-105 L 531,-99 L 513,-93 L 531,-87 L 513,-81 L 531,-75 L 522,-72 L 522,-36" style="stroke:#e6e6e6;fill:none;stroke-width:2.2;stroke-dasharray:-;stroke-linecap:round;stroke-linejoin:round;" /><path d="M 496.0799999999999,-90.0 L 504,-90" style="stroke:#e6e6e6;fill:none;stroke-width:2.2;stroke-dasharray:-;stroke-linecap:round;stroke-linejoin:round;" /><path d="M 511 -90 L 504 -87.3 L 504 -92.7 Z" style="stroke:#e6e6e6;fill:#e6e6e6;stroke-linecap:butt;stroke-linejoin:miter;" /><path d="M 521.9999999999999,-144.0 L 522,-158.4" style="stroke:#e6e6e6;fill:none;stroke-width:2.2;stroke-dasharray:-;stroke-linecap:round;stroke-linejoin:round;" /><path d="M 521.9999999999999,-158.4 L 515.25,-158.4" style="stroke:#e6e6e6;fill:none;stroke-width:2.2;stroke-dasharray:-;stroke-linecap:round;stroke-linejoin:round;" /><path d="M 521.9999999999999,-158.4 L 528.75,-158.4" style="stroke:#e6e6e6;fill:none;stroke-width:2.2;stroke-dasharray:-;stroke-linecap:round;stroke-linejoin:round;" /><path d="M 521.9999999999999,-36.0 L 522,-21.6 L 513,-21.6 L 531,-21.6 M 515.7,-17.28 L 528.3,-17.28 M 520.2,-12.96 L 523.8,-12.96" style="stroke:#e6e6e6;fill:none;stroke-width:2.2;stroke-dasharray:-;stroke-linecap:round;stroke-linejoin:round;" /><path d="M 496.0799999999999,-90.0 L 480.24,-90 L 464.4,-90" style="stroke:#e6e6e6;fill:none;stroke-width:2.2;stroke-dasharray:-;stroke-linecap:round;stroke-linejoin:round;" /><text x="88.2" y="-140.0" dominant-baseline="central" fill="#e6e6e6" font-size="14" font-family="sans" text-anchor="end"><tspan x="88.2" dy="14">13 SCK</tspan></text><text x="88.2" y="-104.0" dominant-baseline="central" fill="#e6e6e6" font-size="14" font-family="sans" text-anchor="end"><tspan x="88.2" dy="14">11 COPI</tspan></text><text x="88.2" y="-68.0" dominant-baseline="central" fill="#e6e6e6" font-size="14" font-family="sans" text-anchor="end"><tspan x="88.2" dy="14">12 CIPO</tspan></text><text x="88.2" y="-32.0" dominant-baseline="central" fill="#e6e6e6" font-size="14" font-family="sans" text-anchor="end"><tspan x="88.2" dy="14">10 CS</tspan></text><text x="55.800000000000004" y="-161.6" dominant-baseline="ideographic" fill="#e6e6e6" font-size="14" font-family="sans" text-anchor="middle"><tspan x="55.800000000000004" dy="14">Arduino Uno</tspan></text><text x="315.0" y="-140.0" dominant-baseline="central" fill="#e6e6e6" font-size="14" font-family="sans" text-anchor="start"><tspan x="315.0" dy="14">CLK</tspan></text><text x="315.0" y="-104.0" dominant-baseline="central" fill="#e6e6e6" font-size="14" font-family="sans" text-anchor="start"><tspan x="315.0" dy="14">DIN</tspan></text><text x="315.0" y="-68.0" dominant-baseline="central" fill="#e6e6e6" font-size="14" font-family="sans" text-anchor="start"><tspan x="315.0" dy="14">DOUT</tspan></text><text x="315.0" y="-32.0" dominant-baseline="central" fill="#e6e6e6" font-size="14" font-family="sans" text-anchor="start"><tspan x="315.0" dy="14">CS</tspan></text><text x="397.8" y="-104.0" dominant-baseline="central" fill="#e6e6e6" font-size="14" font-family="sans" text-anchor="end"><tspan x="397.8" dy="14">CH0</tspan></text><text x="356.40000000000003" y="-161.6" dominant-baseline="ideographic" fill="#e6e6e6" font-size="14" font-family="sans" text-anchor="middle"><tspan x="356.40000000000003" dy="14">MCP3008</tspan></text><text x="534.5999999999999" y="-104.0" dominant-baseline="central" fill="#e6e6e6" font-size="14" font-family="sans" text-anchor="start"><tspan x="534.5999999999999" dy="14">10 kΩ</tspan></text><text x="521.9999999999999" y="-176.0" dominant-baseline="ideographic" fill="#e6e6e6" font-size="14" font-family="sans" text-anchor="middle"><tspan x="521.9999999999999" dy="14">5 V</tspan></text><circle cx="464.4" cy="-90" r="2.7" style="stroke:#e6e6e6;fill:#e6e6e6;stroke-width:2.2;stroke-dasharray:-;" /></svg>