<svg xmlns="http://www.w3.org/2000/svg" viewBox="0 0 880 420" width="880" height="420" role="img" font-family="IBM Plex Sans, Helvetica, Arial, sans-serif">
<title>Four parallel-plate capacitors. Two 10 by 10 centimetre plates 1 millimetre apart in air give 89 picofarads. Doubling the area gives 177 picofarads, halving the gap gives 177 picofarads, and filling the gap with aluminium oxide, relative permittivity 9.6, gives 850 picofarads.</title>
<defs><radialGradient id="eball" cx="35%" cy="32%" r="70%"><stop offset="0" stop-color="#ffffff"/><stop offset="0.45" stop-color="#cbd5e0"/><stop offset="1" stop-color="#4a5568"/></radialGradient><radialGradient id="vball" cx="35%" cy="32%" r="70%"><stop offset="0" stop-color="#fff7e0"/><stop offset="0.45" stop-color="#f59e0b"/><stop offset="1" stop-color="#92400e"/></radialGradient><radialGradient id="core" cx="35%" cy="32%" r="70%"><stop offset="0" stop-color="#e2e8f0"/><stop offset="0.45" stop-color="#718096"/><stop offset="1" stop-color="#1a202c"/></radialGradient><radialGradient id="silverball" cx="35%" cy="32%" r="70%"><stop offset="0" stop-color="#ffffff"/><stop offset="0.45" stop-color="#c0c6cf"/><stop offset="1" stop-color="#5a6270"/></radialGradient><radialGradient id="copperball" cx="35%" cy="32%" r="70%"><stop offset="0" stop-color="#ffd2b0"/><stop offset="0.45" stop-color="#c8733c"/><stop offset="1" stop-color="#5e2b10"/></radialGradient><radialGradient id="goldball" cx="35%" cy="32%" r="70%"><stop offset="0" stop-color="#fff3b0"/><stop offset="0.45" stop-color="#e6b422"/><stop offset="1" stop-color="#7a5a00"/></radialGradient><radialGradient id="alball" cx="35%" cy="32%" r="70%"><stop offset="0" stop-color="#f0f6ff"/><stop offset="0.45" stop-color="#a8b8cc"/><stop offset="1" stop-color="#4a5868"/></radialGradient><radialGradient id="glow" r="50%"><stop offset="0" stop-color="#f59e0b" stop-opacity="0.55"/><stop offset="1" stop-color="#f59e0b" stop-opacity="0"/></radialGradient><linearGradient id="panel" x1="0" y1="0" x2="0" y2="1"><stop offset="0" stop-color="#2d3748" stop-opacity="0.45"/><stop offset="1" stop-color="#1a202c" stop-opacity="0.15"/></linearGradient><linearGradient id="gloss" x1="0" y1="0" x2="0" y2="1"><stop offset="0" stop-color="#ffffff" stop-opacity="0.45"/><stop offset="0.45" stop-color="#ffffff" stop-opacity="0.05"/><stop offset="0.55" stop-color="#000000" stop-opacity="0"/><stop offset="1" stop-color="#000000" stop-opacity="0.35"/></linearGradient><filter id="softglow" x="-50%" y="-50%" width="200%" height="200%"><feGaussianBlur stdDeviation="4" result="b"/><feMerge><feMergeNode in="b"/><feMergeNode in="SourceGraphic"/></feMerge></filter><marker id="arrow" viewBox="0 0 10 10" refX="9" refY="5" markerWidth="7" markerHeight="7" orient="auto-start-reverse"><path d="M0,0 L10,5 L0,10 z" fill="#f59e0b"/></marker></defs>
<rect x="15" y="20" width="200" height="380" rx="14" fill="url(#panel)" stroke="#4a5568" stroke-opacity="0.6"/>
<text x="115.0" y="52.0" font-size="15" fill="#fbbf24" text-anchor="middle" font-weight="bold">Starting point</text>
<ellipse cx="122.5" cy="255.0" rx="68.5" ry="9.0" fill="#000" fill-opacity="0.4"/>
<polygon points="60.0,242.0 150.0,242.0 185.0,219.5 95.0,219.5" fill="#bcc6d2"/>
<rect x="60.0" y="242.0" width="90.0" height="8.0" fill="#a0aec0"/>
<rect x="60.0" y="242.0" width="90.0" height="8.0" fill="url(#gloss)" opacity="0.6"/>
<polygon points="150.0,250.0 150.0,242.0 185.0,219.5 185.0,227.5" fill="#585f69"/>
<polygon points="60.0,174.0 150.0,174.0 185.0,151.5 95.0,151.5" fill="#bcc6d2"/>
<rect x="60.0" y="174.0" width="90.0" height="8.0" fill="#a0aec0"/>
<rect x="60.0" y="174.0" width="90.0" height="8.0" fill="url(#gloss)" opacity="0.6"/>
<polygon points="150.0,182.0 150.0,174.0 185.0,151.5 185.0,159.5" fill="#585f69"/>
<text x="115.0" y="315.0" font-size="22" fill="#e6e6e6" text-anchor="middle" font-weight="bold">89 pF</text>
<text x="115.0" y="340.0" font-size="12" fill="#a0aec0" text-anchor="middle" font-weight="normal">10 × 10 cm plates, 1 mm of air</text>
<rect x="232" y="20" width="200" height="380" rx="14" fill="url(#panel)" stroke="#4a5568" stroke-opacity="0.6"/>
<text x="332.0" y="52.0" font-size="15" fill="#fbbf24" text-anchor="middle" font-weight="bold">Double the area</text>
<ellipse cx="339.5" cy="255.0" rx="87.1" ry="9.0" fill="#000" fill-opacity="0.4"/>
<polygon points="258.4,242.0 385.6,242.0 420.6,219.5 293.4,219.5" fill="#bcc6d2"/>
<rect x="258.4" y="242.0" width="127.3" height="8.0" fill="#a0aec0"/>
<rect x="258.4" y="242.0" width="127.3" height="8.0" fill="url(#gloss)" opacity="0.6"/>
<polygon points="385.6,250.0 385.6,242.0 420.6,219.5 420.6,227.5" fill="#585f69"/>
<polygon points="258.4,174.0 385.6,174.0 420.6,151.5 293.4,151.5" fill="#bcc6d2"/>
<rect x="258.4" y="174.0" width="127.3" height="8.0" fill="#a0aec0"/>
<rect x="258.4" y="174.0" width="127.3" height="8.0" fill="url(#gloss)" opacity="0.6"/>
<polygon points="385.6,182.0 385.6,174.0 420.6,151.5 420.6,159.5" fill="#585f69"/>
<text x="332.0" y="315.0" font-size="22" fill="#e6e6e6" text-anchor="middle" font-weight="bold">177 pF</text>
<text x="332.0" y="340.0" font-size="12" fill="#a0aec0" text-anchor="middle" font-weight="normal">twice the plate</text>
<rect x="449" y="20" width="200" height="380" rx="14" fill="url(#panel)" stroke="#4a5568" stroke-opacity="0.6"/>
<text x="549.0" y="52.0" font-size="15" fill="#fbbf24" text-anchor="middle" font-weight="bold">Halve the gap</text>
<ellipse cx="556.5" cy="255.0" rx="68.5" ry="9.0" fill="#000" fill-opacity="0.4"/>
<polygon points="494.0,242.0 584.0,242.0 619.0,219.5 529.0,219.5" fill="#bcc6d2"/>
<rect x="494.0" y="242.0" width="90.0" height="8.0" fill="#a0aec0"/>
<rect x="494.0" y="242.0" width="90.0" height="8.0" fill="url(#gloss)" opacity="0.6"/>
<polygon points="584.0,250.0 584.0,242.0 619.0,219.5 619.0,227.5" fill="#585f69"/>
<polygon points="494.0,204.0 584.0,204.0 619.0,181.5 529.0,181.5" fill="#bcc6d2"/>
<rect x="494.0" y="204.0" width="90.0" height="8.0" fill="#a0aec0"/>
<rect x="494.0" y="204.0" width="90.0" height="8.0" fill="url(#gloss)" opacity="0.6"/>
<polygon points="584.0,212.0 584.0,204.0 619.0,181.5 619.0,189.5" fill="#585f69"/>
<text x="549.0" y="315.0" font-size="22" fill="#e6e6e6" text-anchor="middle" font-weight="bold">177 pF</text>
<text x="549.0" y="340.0" font-size="12" fill="#a0aec0" text-anchor="middle" font-weight="normal">plates twice as close</text>
<rect x="666" y="20" width="200" height="380" rx="14" fill="url(#panel)" stroke="#4a5568" stroke-opacity="0.6"/>
<text x="766.0" y="52.0" font-size="15" fill="#fbbf24" text-anchor="middle" font-weight="bold">Better dielectric</text>
<polygon points="711.0,182.0 801.0,182.0 836.0,159.5 746.0,159.5" fill="#6b85a7"/>
<rect x="711.0" y="182.0" width="90.0" height="60.0" fill="#2c5282"/>
<rect x="711.0" y="182.0" width="90.0" height="60.0" fill="url(#gloss)" opacity="0.6"/>
<polygon points="801.0,242.0 801.0,182.0 836.0,159.5 836.0,219.5" fill="#182d47"/>
<ellipse cx="773.5" cy="255.0" rx="68.5" ry="9.0" fill="#000" fill-opacity="0.4"/>
<polygon points="711.0,242.0 801.0,242.0 836.0,219.5 746.0,219.5" fill="#bcc6d2"/>
<rect x="711.0" y="242.0" width="90.0" height="8.0" fill="#a0aec0"/>
<rect x="711.0" y="242.0" width="90.0" height="8.0" fill="url(#gloss)" opacity="0.6"/>
<polygon points="801.0,250.0 801.0,242.0 836.0,219.5 836.0,227.5" fill="#585f69"/>
<polygon points="711.0,174.0 801.0,174.0 836.0,151.5 746.0,151.5" fill="#bcc6d2"/>
<rect x="711.0" y="174.0" width="90.0" height="8.0" fill="#a0aec0"/>
<rect x="711.0" y="174.0" width="90.0" height="8.0" fill="url(#gloss)" opacity="0.6"/>
<polygon points="801.0,182.0 801.0,174.0 836.0,151.5 836.0,159.5" fill="#585f69"/>
<text x="766.0" y="315.0" font-size="22" fill="#e6e6e6" text-anchor="middle" font-weight="bold">850 pF</text>
<text x="766.0" y="340.0" font-size="12" fill="#a0aec0" text-anchor="middle" font-weight="normal">aluminium oxide, εr 9.6</text>
</svg>
