<svg xmlns="http://www.w3.org/2000/svg" viewBox="0 0 720 480" width="720" height="480" role="img" font-family="IBM Plex Sans, Helvetica, Arial, sans-serif">
<title>Resistance against temperature: copper rises gently, a semiconductor thermistor falls steeply</title>
<defs><radialGradient id="eball" cx="35%" cy="32%" r="70%"><stop offset="0" stop-color="#ffffff"/><stop offset="0.45" stop-color="#cbd5e0"/><stop offset="1" stop-color="#4a5568"/></radialGradient><radialGradient id="vball" cx="35%" cy="32%" r="70%"><stop offset="0" stop-color="#fff7e0"/><stop offset="0.45" stop-color="#f59e0b"/><stop offset="1" stop-color="#92400e"/></radialGradient><radialGradient id="core" cx="35%" cy="32%" r="70%"><stop offset="0" stop-color="#e2e8f0"/><stop offset="0.45" stop-color="#718096"/><stop offset="1" stop-color="#1a202c"/></radialGradient><radialGradient id="silverball" cx="35%" cy="32%" r="70%"><stop offset="0" stop-color="#ffffff"/><stop offset="0.45" stop-color="#c0c6cf"/><stop offset="1" stop-color="#5a6270"/></radialGradient><radialGradient id="copperball" cx="35%" cy="32%" r="70%"><stop offset="0" stop-color="#ffd2b0"/><stop offset="0.45" stop-color="#c8733c"/><stop offset="1" stop-color="#5e2b10"/></radialGradient><radialGradient id="goldball" cx="35%" cy="32%" r="70%"><stop offset="0" stop-color="#fff3b0"/><stop offset="0.45" stop-color="#e6b422"/><stop offset="1" stop-color="#7a5a00"/></radialGradient><radialGradient id="alball" cx="35%" cy="32%" r="70%"><stop offset="0" stop-color="#f0f6ff"/><stop offset="0.45" stop-color="#a8b8cc"/><stop offset="1" stop-color="#4a5868"/></radialGradient><radialGradient id="glow" r="50%"><stop offset="0" stop-color="#f59e0b" stop-opacity="0.55"/><stop offset="1" stop-color="#f59e0b" stop-opacity="0"/></radialGradient><linearGradient id="panel" x1="0" y1="0" x2="0" y2="1"><stop offset="0" stop-color="#2d3748" stop-opacity="0.45"/><stop offset="1" stop-color="#1a202c" stop-opacity="0.15"/></linearGradient><linearGradient id="gloss" x1="0" y1="0" x2="0" y2="1"><stop offset="0" stop-color="#ffffff" stop-opacity="0.45"/><stop offset="0.45" stop-color="#ffffff" stop-opacity="0.05"/><stop offset="0.55" stop-color="#000000" stop-opacity="0"/><stop offset="1" stop-color="#000000" stop-opacity="0.35"/></linearGradient><filter id="softglow" x="-50%" y="-50%" width="200%" height="200%"><feGaussianBlur stdDeviation="4" result="b"/><feMerge><feMergeNode in="b"/><feMergeNode in="SourceGraphic"/></feMerge></filter><marker id="arrow" viewBox="0 0 10 10" refX="9" refY="5" markerWidth="7" markerHeight="7" orient="auto-start-reverse"><path d="M0,0 L10,5 L0,10 z" fill="#f59e0b"/></marker><linearGradient id="semifill" x1="0" y1="0" x2="0" y2="1"><stop offset="0" stop-color="#e2e8f0" stop-opacity="0.28"/><stop offset="1" stop-color="#e2e8f0" stop-opacity="0"/></linearGradient><linearGradient id="cufill" x1="0" y1="0" x2="0" y2="1"><stop offset="0" stop-color="#f59e0b" stop-opacity="0.3"/><stop offset="1" stop-color="#f59e0b" stop-opacity="0"/></linearGradient></defs>
<rect x="85" y="50" width="485" height="360" rx="14" fill="url(#panel)" stroke="#4a5568" stroke-opacity="0.6"/>
<line x1="188.0" y1="60" x2="188.0" y2="400" stroke="#4a5568" stroke-opacity="0.35"/>
<line x1="281.0" y1="60" x2="281.0" y2="400" stroke="#4a5568" stroke-opacity="0.35"/>
<line x1="374.0" y1="60" x2="374.0" y2="400" stroke="#4a5568" stroke-opacity="0.35"/>
<line x1="467.0" y1="60" x2="467.0" y2="400" stroke="#4a5568" stroke-opacity="0.35"/>
<line x1="560.0" y1="60" x2="560.0" y2="400" stroke="#4a5568" stroke-opacity="0.35"/>
<line x1="95" y1="343.3" x2="560" y2="343.3" stroke="#4a5568" stroke-opacity="0.35"/>
<line x1="95" y1="286.7" x2="560" y2="286.7" stroke="#4a5568" stroke-opacity="0.35"/>
<line x1="95" y1="230.0" x2="560" y2="230.0" stroke="#4a5568" stroke-opacity="0.35"/>
<line x1="95" y1="173.3" x2="560" y2="173.3" stroke="#4a5568" stroke-opacity="0.35"/>
<line x1="95" y1="116.7" x2="560" y2="116.7" stroke="#4a5568" stroke-opacity="0.35"/>
<line x1="95" y1="400" x2="560" y2="400" stroke="#a0aec0" stroke-width="1.5"/>
<line x1="95" y1="400" x2="95" y2="60" stroke="#a0aec0" stroke-width="1.5"/>
<text x="95.0" y="422.0" font-size="13" fill="#a0aec0" text-anchor="middle" font-weight="normal">0 °C</text>
<text x="188.0" y="422.0" font-size="13" fill="#a0aec0" text-anchor="middle" font-weight="normal">20 °C</text>
<text x="281.0" y="422.0" font-size="13" fill="#a0aec0" text-anchor="middle" font-weight="normal">40 °C</text>
<text x="374.0" y="422.0" font-size="13" fill="#a0aec0" text-anchor="middle" font-weight="normal">60 °C</text>
<text x="467.0" y="422.0" font-size="13" fill="#a0aec0" text-anchor="middle" font-weight="normal">80 °C</text>
<text x="560.0" y="422.0" font-size="13" fill="#a0aec0" text-anchor="middle" font-weight="normal">100 °C</text>
<text x="85.0" y="404.0" font-size="13" fill="#a0aec0" text-anchor="end" font-weight="normal">0×</text>
<text x="85.0" y="347.3" font-size="13" fill="#a0aec0" text-anchor="end" font-weight="normal">0.5×</text>
<text x="85.0" y="290.7" font-size="13" fill="#a0aec0" text-anchor="end" font-weight="normal">1×</text>
<text x="85.0" y="234.0" font-size="13" fill="#a0aec0" text-anchor="end" font-weight="normal">1.5×</text>
<text x="85.0" y="177.3" font-size="13" fill="#a0aec0" text-anchor="end" font-weight="normal">2×</text>
<text x="85.0" y="120.7" font-size="13" fill="#a0aec0" text-anchor="end" font-weight="normal">2.5×</text>
<text x="85.0" y="64.0" font-size="13" fill="#a0aec0" text-anchor="end" font-weight="normal">3×</text>
<text x="327.5" y="450.0" font-size="14" fill="#e6e6e6" text-anchor="middle" font-weight="normal">Temperature</text>
<text x="30" y="230.0" font-size="14" fill="#e6e6e6" text-anchor="middle" transform="rotate(-90 30 230.0)">Resistance (relative to 20 °C)</text>
<path d="M95.0,96.0 L104.3,126.4 L113.6,153.3 L122.9,177.2 L132.2,198.6 L141.5,217.6 L150.8,234.6 L160.1,249.8 L169.4,263.4 L178.7,275.7 L188.0,286.7 L197.3,296.6 L206.6,305.5 L215.9,313.5 L225.2,320.8 L234.5,327.3 L243.8,333.3 L253.1,338.7 L262.4,343.6 L271.7,348.0 L281.0,352.1 L290.3,355.8 L299.6,359.1 L308.9,362.2 L318.2,365.0 L327.5,367.6 L336.8,369.9 L346.1,372.1 L355.4,374.0 L364.7,375.9 L374.0,377.5 L383.3,379.1 L392.6,380.5 L401.9,381.8 L411.2,383.0 L420.5,384.1 L429.8,385.1 L439.1,386.1 L448.4,386.9 L457.7,387.8 L467.0,388.5 L476.3,389.2 L485.6,389.9 L494.9,390.5 L504.2,391.0 L513.5,391.6 L522.8,392.0 L532.1,392.5 L541.4,392.9 L550.7,393.3 L560.0,393.7 L560.0,400 L95.0,400 Z" fill="url(#semifill)"/>
<path d="M95.0,295.4 L104.3,294.5 L113.6,293.7 L122.9,292.8 L132.2,291.9 L141.5,291.0 L150.8,290.2 L160.1,289.3 L169.4,288.4 L178.7,287.5 L188.0,286.7 L197.3,285.8 L206.6,284.9 L215.9,284.0 L225.2,283.2 L234.5,282.3 L243.8,281.4 L253.1,280.5 L262.4,279.7 L271.7,278.8 L281.0,277.9 L290.3,277.0 L299.6,276.2 L308.9,275.3 L318.2,274.4 L327.5,273.5 L336.8,272.7 L346.1,271.8 L355.4,270.9 L364.7,270.0 L374.0,269.2 L383.3,268.3 L392.6,267.4 L401.9,266.5 L411.2,265.7 L420.5,264.8 L429.8,263.9 L439.1,263.0 L448.4,262.2 L457.7,261.3 L467.0,260.4 L476.3,259.5 L485.6,258.7 L494.9,257.8 L504.2,256.9 L513.5,256.0 L522.8,255.2 L532.1,254.3 L541.4,253.4 L550.7,252.5 L560.0,251.7 L560.0,400 L95.0,400 Z" fill="url(#cufill)"/>
<polyline points="95.0,96.0 104.3,126.4 113.6,153.3 122.9,177.2 132.2,198.6 141.5,217.6 150.8,234.6 160.1,249.8 169.4,263.4 178.7,275.7 188.0,286.7 197.3,296.6 206.6,305.5 215.9,313.5 225.2,320.8 234.5,327.3 243.8,333.3 253.1,338.7 262.4,343.6 271.7,348.0 281.0,352.1 290.3,355.8 299.6,359.1 308.9,362.2 318.2,365.0 327.5,367.6 336.8,369.9 346.1,372.1 355.4,374.0 364.7,375.9 374.0,377.5 383.3,379.1 392.6,380.5 401.9,381.8 411.2,383.0 420.5,384.1 429.8,385.1 439.1,386.1 448.4,386.9 457.7,387.8 467.0,388.5 476.3,389.2 485.6,389.9 494.9,390.5 504.2,391.0 513.5,391.6 522.8,392.0 532.1,392.5 541.4,392.9 550.7,393.3 560.0,393.7" fill="none" stroke="#f7fafc" stroke-width="3.5" stroke-linejoin="round" filter="url(#softglow)"/>
<polyline points="95.0,295.4 104.3,294.5 113.6,293.7 122.9,292.8 132.2,291.9 141.5,291.0 150.8,290.2 160.1,289.3 169.4,288.4 178.7,287.5 188.0,286.7 197.3,285.8 206.6,284.9 215.9,284.0 225.2,283.2 234.5,282.3 243.8,281.4 253.1,280.5 262.4,279.7 271.7,278.8 281.0,277.9 290.3,277.0 299.6,276.2 308.9,275.3 318.2,274.4 327.5,273.5 336.8,272.7 346.1,271.8 355.4,270.9 364.7,270.0 374.0,269.2 383.3,268.3 392.6,267.4 401.9,266.5 411.2,265.7 420.5,264.8 429.8,263.9 439.1,263.0 448.4,262.2 457.7,261.3 467.0,260.4 476.3,259.5 485.6,258.7 494.9,257.8 504.2,256.9 513.5,256.0 522.8,255.2 532.1,254.3 541.4,253.4 550.7,252.5 560.0,251.7" fill="none" stroke="#f59e0b" stroke-width="3.5" stroke-linejoin="round" filter="url(#softglow)"/>
<circle cx="188.0" cy="286.7" r="7" fill="url(#vball)"/>
<text x="202.0" y="272.7" font-size="12" fill="#a0aec0" text-anchor="start" font-weight="normal" font-style="italic">both equal at 20 °C</text>
<circle cx="560.0" cy="251.7" r="8" fill="url(#copperball)"/>
<circle cx="560.0" cy="393.7" r="8" fill="url(#eball)"/>
<text x="578.0" y="256.7" font-size="15" fill="#fbbf24" text-anchor="start" font-weight="bold">Copper</text>
<text x="578.0" y="275.7" font-size="13" fill="#fbbf24" text-anchor="start" font-weight="normal">rises ~0.39%/°C</text>
<text x="160.1" y="111.0" font-size="15" fill="#e6e6e6" text-anchor="start" font-weight="bold">Semiconductor</text>
<text x="160.1" y="130.0" font-size="13" fill="#e6e6e6" text-anchor="start" font-weight="normal">(typical NTC thermistor) falls steeply</text>
<text x="360.0" y="30.0" font-size="15" fill="#e6e6e6" text-anchor="middle" font-weight="bold">Heat pushes metals and semiconductors in opposite directions</text>
</svg>
