<svg xmlns="http://www.w3.org/2000/svg" xmlns:xlink="http://www.w3.org/1999/xlink" xml:lang="en" height="152.80000000000004pt" width="325.09400000000005pt" viewBox="-39.088 -148.20000000000002 325.09400000000005 152.80000000000004"><circle cx="148.32" cy="-108" r="4.32" style="stroke:#e6e6e6;fill:none;stroke-width:2.2;stroke-dasharray:-;" /><circle cx="175.68" cy="-108" r="4.32" style="stroke:#e6e6e6;fill:none;stroke-width:2.2;stroke-dasharray:-;" /><circle cx="148.32" cy="-36" r="4.32" style="stroke:#e6e6e6;fill:none;stroke-width:2.2;stroke-dasharray:-;" /><circle cx="175.68" cy="-36" r="4.32" style="stroke:#e6e6e6;fill:none;stroke-width:2.2;stroke-dasharray:-;" /><polygon points="225,-60.3 216,-47.7 207,-60.3 " style="stroke:#e6e6e6;fill:none;stroke-width:2.2;stroke-dasharray:-;stroke-linecap:round;stroke-linejoin:round;" /><path d="M 0.0,-0.0 L 0,-43.875 M 0,-64.125 L 0,-108" style="stroke:#e6e6e6;fill:none;stroke-width:2.2;stroke-dasharray:-;stroke-linecap:round;stroke-linejoin:round;" /><path d="M 13.500000000000004,-64.125 L -13.5,-64.125" style="stroke:#e6e6e6;fill:none;stroke-width:2.2;stroke-dasharray:-;stroke-linecap:round;stroke-linejoin:round;" /><path d="M 6.7500000000000036,-57.375 L -6.75,-57.375" style="stroke:#e6e6e6;fill:none;stroke-width:2.2;stroke-dasharray:-;stroke-linecap:round;stroke-linejoin:round;" /><path d="M 13.500000000000004,-50.625 L -13.5,-50.625" style="stroke:#e6e6e6;fill:none;stroke-width:2.2;stroke-dasharray:-;stroke-linecap:round;stroke-linejoin:round;" /><path d="M 6.750000000000003,-43.875 L -6.75,-43.875" style="stroke:#e6e6e6;fill:none;stroke-width:2.2;stroke-dasharray:-;stroke-linecap:round;stroke-linejoin:round;" /><path d="M 6.613092715395707e-15,-108.0 L 36,-108 L 39,-117 L 45,-99 L 51,-117 L 57,-99 L 63,-117 L 69,-99 L 72,-108 L 108,-108" style="stroke:#e6e6e6;fill:none;stroke-width:2.2;stroke-dasharray:-;stroke-linecap:round;stroke-linejoin:round;" /><path d="M 108.0,-108.0 L 144,-108 M 148.32,-118.8 L 175.68,-118.8 M 162,-118.8 L 162,-126 M 180,-108 L 216,-108" style="stroke:#e6e6e6;fill:none;stroke-width:2.2;stroke-dasharray:-;stroke-linecap:round;stroke-linejoin:round;" /><path d="M 108.0,-108.0 L 108,-72 L 108,-36" style="stroke:#e6e6e6;fill:none;stroke-width:2.2;stroke-dasharray:-;stroke-linecap:round;stroke-linejoin:round;" /><path d="M 107.99999999999999,-36.0 L 144,-36 M 148.32,-46.8 L 175.68,-46.8 M 162,-46.8 L 162,-54 M 180,-36 L 216,-36" style="stroke:#e6e6e6;fill:none;stroke-width:2.2;stroke-dasharray:-;stroke-linecap:round;stroke-linejoin:round;" /><path d="M 216.0,-36.0 L 216,-72 L 216,-108" style="stroke:#e6e6e6;fill:none;stroke-width:2.2;stroke-dasharray:-;stroke-linecap:round;stroke-linejoin:round;" /><path d="M 216.0,-108.0 L 216,-60.3 M 225,-47.7 L 207,-47.7 M 216,-47.7 L 216,-0" style="stroke:#e6e6e6;fill:none;stroke-width:2.2;stroke-dasharray:-;stroke-linecap:round;stroke-linejoin:round;" /><path d="M 229.5,-51.300000000000004 L 238.999,-45.872" style="stroke:#e6e6e6;fill:none;stroke-width:2.2;stroke-dasharray:-;stroke-linecap:round;stroke-linejoin:round;" /><path d="M 243.514 -43.292 L 237.57 -43.372 L 240.428 -48.373 Z" style="stroke:#e6e6e6;fill:#e6e6e6;stroke-linecap:butt;stroke-linejoin:miter;" /><path d="M 229.5,-59.400000000000006 L 238.999,-53.972" style="stroke:#e6e6e6;fill:none;stroke-width:2.2;stroke-dasharray:-;stroke-linecap:round;stroke-linejoin:round;" /><path d="M 243.514 -51.392 L 237.57 -51.472 L 240.428 -56.473 Z" style="stroke:#e6e6e6;fill:#e6e6e6;stroke-linecap:butt;stroke-linejoin:miter;" /><path d="M 215.99999999999997,-0.0 L 108,-0 L 0,-0" style="stroke:#e6e6e6;fill:none;stroke-width:2.2;stroke-dasharray:-;stroke-linecap:round;stroke-linejoin:round;" /><path d="M 0.0,-2.6452370861582824e-14 L 0,-0 L 0,-0" style="stroke:#e6e6e6;fill:none;stroke-width:2.2;stroke-dasharray:-;stroke-linecap:round;stroke-linejoin:round;" /><text x="-17.099999999999994" y="-68.0" dominant-baseline="central" fill="#e6e6e6" font-size="14" font-family="sans" text-anchor="end"><tspan x="-17.099999999999994" dy="14">5V</tspan></text><text x="54.00000000000001" y="-134.60000000000002" dominant-baseline="ideographic" fill="#e6e6e6" font-size="14" font-family="sans" text-anchor="middle"><tspan x="54.00000000000001" dy="14">220 Ω</tspan></text><text x="162.0" y="-143.6" dominant-baseline="ideographic" fill="#e6e6e6" font-size="14" font-family="sans" text-anchor="middle"><tspan x="162.0" dy="14">SW1</tspan></text><text x="162.0" y="-71.6" dominant-baseline="ideographic" fill="#e6e6e6" font-size="14" font-family="sans" text-anchor="middle"><tspan x="162.0" dy="14">SW2</tspan></text><text x="254.60999999999999" y="-68.0" dominant-baseline="central" fill="#e6e6e6" font-size="14" font-family="sans" text-anchor="start"><tspan x="254.60999999999999" dy="14">LED</tspan></text><circle cx="108" cy="-108" r="2.7" style="stroke:#e6e6e6;fill:#e6e6e6;stroke-width:2.2;stroke-dasharray:-;" /><circle cx="216" cy="-108" r="2.7" style="stroke:#e6e6e6;fill:#e6e6e6;stroke-width:2.2;stroke-dasharray:-;" /><circle cx="216" cy="-108" r="2.7" style="stroke:#e6e6e6;fill:#e6e6e6;stroke-width:2.2;stroke-dasharray:-;" /></svg>